<svg xmlns="http://www.w3.org/2000/svg" width="26.219" height="31.87" viewBox="0 0 26.219 31.87">
  <defs>
    <style>
      .cls-1 {
        fill: #fff;
        fill-rule: evenodd;
      }
    </style>
  </defs>
  <path id="ла" class="cls-1" d="M108.644,1146.63h3.682v-14.49h8.889a32.467,32.467,0,0,1,7.253.5c3.637,0.95,6.409,4.22,6.409,9.31,0,5.82-3.727,8.87-7.091,9.59a30.542,30.542,0,0,1-6.253.46h-3.039v2.73h15.02v5.36h-15.02V1164h-6.168v-3.91h-3.682v-5.36h3.682V1152h-3.682v-5.37Zm9.85-9.09v9.05h2.358a13.828,13.828,0,0,0,4.662-.5,4.351,4.351,0,0,0-.864-8.32,24.484,24.484,0,0,0-4.208-.23h-1.948Z" transform="translate(-108.656 -1132.13)"/>
</svg>
